<svg version="1.1" xmlns="http://www.w3.org/2000/svg" viewBox="0 0 646.0029296875 527.1972595214844" width="646.0029296875" height="527.1972595214844">
  <!-- svg-source:excalidraw -->
  
  <defs>
    <style class="style-fonts">
      @font-face {
        font-family: "Virgil";
        src: url("https://excalidraw.com/Virgil.woff2");
      }
      @font-face {
        font-family: "Cascadia";
        src: url("https://excalidraw.com/Cascadia.woff2");
      }
    </style>
  </defs>
  <rect x="0" y="0" width="646.0029296875" height="527.1972595214844" fill="#ffffff"></rect><g stroke-linecap="round" transform="translate(176.5164794921875 15.500701904296875) rotate(0 51.3316650390625 28)"><path d="M14 0 M14 0 C42.06 -0.8, 67.89 -0.18, 88.66 0 M14 0 C33.65 0.05, 52.76 -0.65, 88.66 0 M88.66 0 C99.45 -0.78, 100.85 3.2, 102.66 14 M88.66 0 C99.08 -1.35, 101.46 5.21, 102.66 14 M102.66 14 C101.38 19.58, 102.01 27.37, 102.66 42 M102.66 14 C102.65 20.02, 101.68 25.97, 102.66 42 M102.66 42 C100.98 52.37, 96.69 55.86, 88.66 56 M102.66 42 C100.78 53.55, 99.26 55.81, 88.66 56 M88.66 56 C69.2 56.26, 51.73 56.35, 14 56 M88.66 56 C66.61 56.51, 43.85 55.24, 14 56 M14 56 C2.75 55.05, 0.59 52.41, 0 42 M14 56 C6.02 57.56, 1.9 52.7, 0 42 M0 42 C1.28 37.01, -1.9 30.34, 0 14 M0 42 C-0.8 33.09, 0 23.29, 0 14 M0 14 C0.93 5.48, 5.9 1.32, 14 0 M0 14 C-1.84 6.18, 4.44 -0.79, 14 0" stroke="#000000" stroke-width="1" fill="none"></path></g><g transform="translate(181.5164794921875 20.500701904296875) rotate(0 43.58203125 18.400000000000006)"><text x="0" y="0" font-family="Helvetica, Segoe UI Emoji" font-size="16px" fill="#000000" text-anchor="start" style="white-space: pre;" direction="ltr" dominant-baseline="text-before-edge">Image index</text><text x="0" y="18.4" font-family="Helvetica, Segoe UI Emoji" font-size="16px" fill="#000000" text-anchor="start" style="white-space: pre;" direction="ltr" dominant-baseline="text-before-edge">(JSON)</text></g><g stroke-linecap="round" transform="translate(172.727294921875 151.2996826171875) rotate(0 68 28)"><path d="M14 0 M14 0 C35.42 -1.55, 59.66 -1.41, 122 0 M14 0 C37.36 0.36, 61.83 -0.33, 122 0 M122 0 C131.1 1.26, 136.03 4.97, 136 14 M122 0 C129.14 0.54, 134.06 5.85, 136 14 M136 14 C137.91 21.68, 135.81 25.97, 136 42 M136 14 C136.17 19.53, 136.22 25.93, 136 42 M136 42 C134.84 50.53, 131.51 57.63, 122 56 M136 42 C134.8 50.29, 129.13 54.91, 122 56 M122 56 C87.76 58.29, 51.99 55.12, 14 56 M122 56 C93.14 55.67, 63.43 56.98, 14 56 M14 56 C3.8 55.46, -1.85 52.19, 0 42 M14 56 C4.4 55.91, 1.07 52.27, 0 42 M0 42 C1.13 31.68, -0.87 23.71, 0 14 M0 42 C0.9 32.26, 0.59 22.9, 0 14 M0 14 C0.18 4.89, 3.33 -0.26, 14 0 M0 14 C1.06 6.72, 6.32 -0.31, 14 0" stroke="#000000" stroke-width="1" fill="none"></path></g><g transform="translate(177.727294921875 156.2996826171875) rotate(0 54.69140625 18.400000000000006)"><text x="0" y="0" font-family="Helvetica, Segoe UI Emoji" font-size="16px" fill="#000000" text-anchor="start" style="white-space: pre;" direction="ltr" dominant-baseline="text-before-edge">Image manifest</text><text x="0" y="18.4" font-family="Helvetica, Segoe UI Emoji" font-size="16px" fill="#000000" text-anchor="start" style="white-space: pre;" direction="ltr" dominant-baseline="text-before-edge">(JSON)</text></g><g stroke-linecap="round" transform="translate(427.4432373046875 154.82241821289062) rotate(0 51.3316650390625 28)"><path d="M14 0 M14 0 C29.13 -0.04, 46.47 -1.41, 88.66 0 M14 0 C35.69 -0.96, 57.31 -0.85, 88.66 0 M88.66 0 C99.03 -1.3, 102.52 3.03, 102.66 14 M88.66 0 C100.21 1.27, 102.47 3.32, 102.66 14 M102.66 14 C103.14 19.08, 103.23 25.89, 102.66 42 M102.66 14 C103.36 20.26, 102.1 26.61, 102.66 42 M102.66 42 C101.71 51.93, 99.07 57.17, 88.66 56 M102.66 42 C104.23 53.23, 99.36 54.26, 88.66 56 M88.66 56 C69.56 54.48, 48.76 57.12, 14 56 M88.66 56 C69.94 55.19, 50.31 55.77, 14 56 M14 56 C5.48 57.23, 1.32 49.73, 0 42 M14 56 C6.18 55.77, -0.79 53.58, 0 42 M0 42 C1.53 32.2, 0.9 23.15, 0 14 M0 42 C-0.16 33.8, 0.86 25.4, 0 14 M0 14 C-0.27 4.52, 2.73 0.44, 14 0 M0 14 C1 4.24, 5.07 1.7, 14 0" stroke="#000000" stroke-width="1" fill="none"></path></g><g transform="translate(432.4432373046875 159.82241821289062) rotate(0 45.8046875 18.400000000000006)"><text x="0" y="0" font-family="Helvetica, Segoe UI Emoji" font-size="16px" fill="#000000" text-anchor="start" style="white-space: pre;" direction="ltr" dominant-baseline="text-before-edge">Image config</text><text x="0" y="18.4" font-family="Helvetica, Segoe UI Emoji" font-size="16px" fill="#000000" text-anchor="start" style="white-space: pre;" direction="ltr" dominant-baseline="text-before-edge">(JSON)</text></g><g stroke-linecap="round" transform="translate(10 153.00067138671875) rotate(0 51.3316650390625 28)"><path d="M14 0 M14 0 C34.29 0.12, 52.37 -1.82, 88.66 0 M14 0 C37.5 -0.46, 61.49 0.58, 88.66 0 M88.66 0 C99.1 -0.17, 101.49 2.94, 102.66 14 M88.66 0 C96.95 -1.66, 103.36 3.63, 102.66 14 M102.66 14 C101.85 23.55, 104.28 31.7, 102.66 42 M102.66 14 C102.69 21.67, 102.98 28.94, 102.66 42 M102.66 42 C104.32 52.52, 96.48 55.47, 88.66 56 M102.66 42 C100.69 52.72, 99.49 53.73, 88.66 56 M88.66 56 C62.35 53.83, 37.98 55.44, 14 56 M88.66 56 C67.18 56.96, 43.66 56.96, 14 56 M14 56 C4.47 55.31, 1.95 52.24, 0 42 M14 56 C2.37 55.21, 1.43 51.18, 0 42 M0 42 C0.16 31.41, -0.33 24.39, 0 14 M0 42 C-0.28 30.14, 0.02 20.65, 0 14 M0 14 C-0.37 5.01, 6.14 1.31, 14 0 M0 14 C1.34 6.6, 5.3 1.13, 14 0" stroke="#000000" stroke-width="1" fill="none"></path></g><g transform="translate(15 158.00067138671875) rotate(0 43.58203125 18.400000000000006)"><text x="0" y="0" font-family="Helvetica, Segoe UI Emoji" font-size="16px" fill="#000000" text-anchor="start" style="white-space: pre;" direction="ltr" dominant-baseline="text-before-edge">Image index</text><text x="0" y="18.4" font-family="Helvetica, Segoe UI Emoji" font-size="16px" fill="#000000" text-anchor="start" style="white-space: pre;" direction="ltr" dominant-baseline="text-before-edge">(JSON)</text></g><g stroke-linecap="round" transform="translate(150.5931396484375 313.8069152832031) rotate(0 51.3316650390625 28)"><path d="M14 0 M14 0 C35.83 0.86, 59.72 -0.32, 88.66 0 M14 0 C30.21 -1, 45.73 -0.87, 88.66 0 M88.66 0 C96.55 0.6, 101.76 5.36, 102.66 14 M88.66 0 C97.92 -1.33, 101.74 4.87, 102.66 14 M102.66 14 C100.6 23.73, 103.11 36.44, 102.66 42 M102.66 14 C103.45 23.29, 102.59 33.23, 102.66 42 M102.66 42 C103.87 52.63, 96.03 56.9, 88.66 56 M102.66 42 C103.43 50.33, 97.38 53.87, 88.66 56 M88.66 56 C63.99 56.78, 38.68 57.29, 14 56 M88.66 56 C71.91 56.9, 56.29 54.93, 14 56 M14 56 C3.98 57.25, -0.13 51.95, 0 42 M14 56 C5.23 56.21, 0.26 49.8, 0 42 M0 42 C1.31 33.69, -0.28 23.99, 0 14 M0 42 C0.05 33.71, 0.54 24.54, 0 14 M0 14 C1.68 5.22, 5.65 -0.39, 14 0 M0 14 C0.97 4.61, 6.42 0.41, 14 0" stroke="#000000" stroke-width="1" fill="none"></path></g><g transform="translate(155.5931396484375 318.8069152832031) rotate(0 41.796875 18.399999999999977)"><text x="0" y="0" font-family="Helvetica, Segoe UI Emoji" font-size="16px" fill="#000000" text-anchor="start" style="white-space: pre;" direction="ltr" dominant-baseline="text-before-edge">Image layer</text><text x="0" y="18.4" font-family="Helvetica, Segoe UI Emoji" font-size="16px" fill="#000000" text-anchor="start" style="white-space: pre;" direction="ltr" dominant-baseline="text-before-edge">(tar)</text></g><g stroke-linecap="round" transform="translate(310.3096923828125 315.0732727050781) rotate(0 51.3316650390625 28)"><path d="M14 0 M14 0 C31.26 -1.5, 47.75 1.42, 88.66 0 M14 0 C32.92 -0.43, 51.46 -1.25, 88.66 0 M88.66 0 C97.03 1.04, 102.93 4.34, 102.66 14 M88.66 0 C98.49 -1.48, 103.03 6.22, 102.66 14 M102.66 14 C101.79 23.16, 102.33 34.79, 102.66 42 M102.66 14 C102.01 25.77, 102.45 36.83, 102.66 42 M102.66 42 C102.76 51.71, 96.05 54.07, 88.66 56 M102.66 42 C101.91 49.14, 98.57 57.37, 88.66 56 M88.66 56 C64.71 55.05, 37.68 56.42, 14 56 M88.66 56 C64.48 55.56, 40.25 56.7, 14 56 M14 56 C6.61 55.29, 0.37 50.09, 0 42 M14 56 C6.71 57.13, -1.27 51.06, 0 42 M0 42 C-0.22 33.11, 0.87 24.74, 0 14 M0 42 C0.02 32.02, -0.34 21.81, 0 14 M0 14 C-1.84 4.04, 4.53 -0.52, 14 0 M0 14 C1.08 4.44, 3.3 -1.52, 14 0" stroke="#000000" stroke-width="1" fill="none"></path></g><g transform="translate(315.3096923828125 320.0732727050781) rotate(0 41.796875 18.399999999999977)"><text x="0" y="0" font-family="Helvetica, Segoe UI Emoji" font-size="16px" fill="#000000" text-anchor="start" style="white-space: pre;" direction="ltr" dominant-baseline="text-before-edge">Image layer</text><text x="0" y="18.4" font-family="Helvetica, Segoe UI Emoji" font-size="16px" fill="#000000" text-anchor="start" style="white-space: pre;" direction="ltr" dominant-baseline="text-before-edge">(tar+gzip)</text></g><g stroke-linecap="round" transform="translate(455.2620849609375 316.4717102050781) rotate(0 51.3316650390625 28)"><path d="M14 0 M14 0 C45.47 1.05, 73.97 0.92, 88.66 0 M14 0 C31.87 -0.55, 49.69 -1.03, 88.66 0 M88.66 0 C98.32 1.35, 104.53 6.1, 102.66 14 M88.66 0 C98.69 -1.23, 100.53 4.06, 102.66 14 M102.66 14 C104.28 18.85, 104.58 26.38, 102.66 42 M102.66 14 C101.7 24.08, 102.35 35.14, 102.66 42 M102.66 42 C103.16 52.52, 98.62 57.23, 88.66 56 M102.66 42 C104.9 52.21, 96.07 54.21, 88.66 56 M88.66 56 C68.03 57, 44.81 57.64, 14 56 M88.66 56 C62.99 55.11, 37.84 56.22, 14 56 M14 56 C3.56 55.76, 0.54 51.86, 0 42 M14 56 C4.84 55.83, 0.31 52.42, 0 42 M0 42 C-0.64 32.38, -0.04 21.78, 0 14 M0 42 C0.19 33.66, 0.73 25.74, 0 14 M0 14 C-1.19 3.35, 5.17 0.58, 14 0 M0 14 C-0.97 4.25, 2.95 -1.03, 14 0" stroke="#000000" stroke-width="1" fill="none"></path></g><g transform="translate(460.2620849609375 321.4717102050781) rotate(0 41.796875 18.399999999999977)"><text x="0" y="0" font-family="Helvetica, Segoe UI Emoji" font-size="16px" fill="#000000" text-anchor="start" style="white-space: pre;" direction="ltr" dominant-baseline="text-before-edge">Image layer</text><text x="0" y="18.4" font-family="Helvetica, Segoe UI Emoji" font-size="16px" fill="#000000" text-anchor="start" style="white-space: pre;" direction="ltr" dominant-baseline="text-before-edge">(tar+zstd)</text></g><g stroke-linecap="round"><g transform="translate(227.1378173828125 74.58807373046875) rotate(0 -2.2435386508702777 38.49629364646506)"><path d="M0.03 -0.97 C-0.71 11.76, -4.01 63.56, -4.52 76.77 M-1.41 1.13 C-1.78 13.98, -1.97 65.42, -2.32 77.97" stroke="#000000" stroke-width="1" fill="none"></path></g><g transform="translate(227.1378173828125 74.58807373046875) rotate(0 -2.2435386508702777 38.49629364646506)"><path d="M-13.8 48.01 C-10.28 58.87, -4.85 66.54, -4.01 77.97 M-12.8 50.5 C-9.36 56.84, -7.61 63.12, -3.11 78.44" stroke="#000000" stroke-width="1" fill="none"></path></g><g transform="translate(227.1378173828125 74.58807373046875) rotate(0 -2.2435386508702777 38.49629364646506)"><path d="M6.72 48.3 C4.18 59.08, 3.55 66.66, -4.01 77.97 M7.72 50.79 C6.42 57.01, 3.45 63.22, -3.11 78.44" stroke="#000000" stroke-width="1" fill="none"></path></g></g><mask></mask><g stroke-linecap="round"><g transform="translate(229.9822998046875 75.33380126953125) rotate(0 -80.55155495389363 36.103768173675036)"><path d="M-0.5 -0.2 C-27.36 12.18, -134.7 61.28, -161.87 73.56 M1.44 -1.35 C-25.47 10.78, -135.42 59.82, -162.54 71.98" stroke="#000000" stroke-width="1" fill="none"></path></g><g transform="translate(229.9822998046875 75.33380126953125) rotate(0 -80.55155495389363 36.103768173675036)"><path d="M-141.33 51.99 C-144.58 54.09, -149.9 61.46, -162.53 73.74 M-140.84 50.28 C-149.88 59.24, -156.28 67.61, -162.53 72.46" stroke="#000000" stroke-width="1" fill="none"></path></g><g transform="translate(229.9822998046875 75.33380126953125) rotate(0 -80.55155495389363 36.103768173675036)"><path d="M-132.95 70.73 C-138.09 68.29, -145.43 71.16, -162.53 73.74 M-132.47 69.02 C-144.68 71.04, -154.21 72.42, -162.53 72.46" stroke="#000000" stroke-width="1" fill="none"></path></g></g><mask></mask><g stroke-linecap="round"><g transform="translate(316.9993591308594 180.8484969862405) rotate(0 51.402027818416286 -0.05950240011708274)"><path d="M0.09 -0.38 C17.5 -0.17, 86.73 0.04, 104.13 0.08 M-1.32 -1.62 C15.97 -1.12, 85.69 1.08, 103.23 1.5" stroke="#000000" stroke-width="1" fill="none"></path></g><g transform="translate(316.9993591308594 180.8484969862405) rotate(0 51.402027818416286 -0.05950240011708274)"><path d="M74.12 11.11 C82.17 9.08, 89.47 6.52, 104.05 2.66 M75.28 11.47 C84.88 8.74, 94.35 4.81, 103.46 2.08" stroke="#000000" stroke-width="1" fill="none"></path></g><g transform="translate(316.9993591308594 180.8484969862405) rotate(0 51.402027818416286 -0.05950240011708274)"><path d="M74.71 -9.4 C82.39 -5.89, 89.54 -2.91, 104.05 2.66 M75.86 -9.05 C85.44 -4.99, 94.72 -2.13, 103.46 2.08" stroke="#000000" stroke-width="1" fill="none"></path></g></g><mask></mask><g stroke-linecap="round"><g transform="translate(233.07177734375 211.16476440429688) rotate(0 -22.288049286594514 51.173770580431466)"><path d="M-0.93 -0.21 C-8.26 16.97, -37.15 85.2, -44.76 102.16 M0.78 -1.36 C-6.57 16.1, -37.84 86.38, -45.36 103.71" stroke="#000000" stroke-width="1" fill="none"></path></g><g transform="translate(233.07177734375 211.16476440429688) rotate(0 -22.288049286594514 51.173770580431466)"><path d="M-43.75 74.87 C-44.05 78.79, -45.48 87.59, -44.08 103.46 M-42.97 73.62 C-43.3 83.92, -44.12 94.26, -45.92 104.67" stroke="#000000" stroke-width="1" fill="none"></path></g><g transform="translate(233.07177734375 211.16476440429688) rotate(0 -22.288049286594514 51.173770580431466)"><path d="M-24.96 83.13 C-29.59 84.97, -35.41 91.85, -44.08 103.46 M-24.18 81.88 C-31 89.16, -38.25 96.68, -45.92 104.67" stroke="#000000" stroke-width="1" fill="none"></path></g></g><mask></mask><g stroke-linecap="round"><g transform="translate(239.14137535671898 212.57101440429688) rotate(0 55.11318918497864 49.645249496917245)"><path d="M0.31 -0.03 C18.41 16.84, 90.82 83.72, 109.1 100.38 M-0.99 -1.09 C17.43 15.54, 92.86 82.35, 111.21 98.86" stroke="#000000" stroke-width="1" fill="none"></path></g><g transform="translate(239.14137535671898 212.57101440429688) rotate(0 55.11318918497864 49.645249496917245)"><path d="M83.29 85.85 C94.63 91.08, 103.34 94.06, 109.68 100.41 M83.5 86.99 C89.78 90.8, 95.11 91.97, 110.27 97.99" stroke="#000000" stroke-width="1" fill="none"></path></g><g transform="translate(239.14137535671898 212.57101440429688) rotate(0 55.11318918497864 49.645249496917245)"><path d="M96.95 70.53 C103.55 81, 107.62 89.19, 109.68 100.41 M97.16 71.68 C100.36 78.8, 102.74 83.27, 110.27 97.99" stroke="#000000" stroke-width="1" fill="none"></path></g></g><mask></mask><g stroke-linecap="round"><g transform="translate(238.47190983910514 210.49716186523438) rotate(0 124.32350896906235 52.241126915509795)"><path d="M-0.7 0.61 C40.65 18.05, 207.77 87.29, 249.35 104.6 M1.13 -0.12 C42.88 16.96, 207.55 85.03, 248.69 102.71" stroke="#000000" stroke-width="1" fill="none"></path></g><g transform="translate(238.47190983910514 210.49716186523438) rotate(0 124.32350896906235 52.241126915509795)"><path d="M219.74 102.16 C231.45 101.97, 243.21 100.91, 248.04 103.15 M219.56 100.86 C225.28 100.51, 231.56 102.31, 248.41 102.32" stroke="#000000" stroke-width="1" fill="none"></path></g><g transform="translate(238.47190983910514 210.49716186523438) rotate(0 124.32350896906235 52.241126915509795)"><path d="M227.69 83.24 C236.21 90.57, 244.79 97.08, 248.04 103.15 M227.51 81.94 C231.53 85.81, 236.06 91.77, 248.41 102.32" stroke="#000000" stroke-width="1" fill="none"></path></g></g><mask></mask><g mask="url(#mask-nazau9H2k8bSDQOm27zSn)" stroke-linecap="round"><g transform="translate(488.7021029625994 212.03125) rotate(0 -52.22797773890363 49.87160714566707)"><path d="M-0.9 -0.29 C-18.21 16.5, -86.67 83.6, -103.55 100.04" stroke="#000000" stroke-width="1.5" fill="none" stroke-dasharray="1.5 7"></path></g><g transform="translate(488.7021029625994 212.03125) rotate(0 -52.22797773890363 49.87160714566707)"><path d="M-91.05 72.22 C-93.12 83.19, -100.25 91.72, -104.9 100.01" stroke="#000000" stroke-width="1.5" fill="none" stroke-dasharray="1.5 5"></path></g><g transform="translate(488.7021029625994 212.03125) rotate(0 -52.22797773890363 49.87160714566707)"><path d="M-76.71 86.9 C-83.36 92.99, -95.14 96.75, -104.9 100.01" stroke="#000000" stroke-width="1.5" fill="none" stroke-dasharray="1.5 5"></path></g></g><mask id="mask-nazau9H2k8bSDQOm27zSn"><rect x="0" y="0" fill="#fff" width="691.789601248224" height="410.9715881347656"></rect><rect x="432.70913506978695" y="252.30141906738277" fill="#000" width="8.8984375" height="18.4" opacity="1"></rect></mask><g transform="translate(432.70913506978695 252.30141906738277) rotate(0 3.7649901539087978 9.601438078284303)"><text x="4.44921875" y="0" font-family="Helvetica, Segoe UI Emoji" font-size="16px" fill="#000000" text-anchor="middle" style="white-space: pre;" direction="ltr" dominant-baseline="text-before-edge">1</text></g><g stroke-linecap="round"><g transform="translate(484.7479248046875 213.33807373046875) rotate(0 -129.39782702028754 45.73504029810425)"><path d="M1.11 -0.79 C-42.28 14.69, -216.23 76.73, -259.91 92.26" stroke="#000000" stroke-width="1.5" fill="none" stroke-dasharray="1.5 7"></path></g><g transform="translate(484.7479248046875 213.33807373046875) rotate(0 -129.39782702028754 45.73504029810425)"><path d="M-238.1 73.08 C-245.23 78.01, -252.84 87.79, -259.79 92.3" stroke="#000000" stroke-width="1.5" fill="none" stroke-dasharray="1.5 5"></path></g><g transform="translate(484.7479248046875 213.33807373046875) rotate(0 -129.39782702028754 45.73504029810425)"><path d="M-231.22 92.42 C-240.56 90.92, -250.48 94.21, -259.79 92.3" stroke="#000000" stroke-width="1.5" fill="none" stroke-dasharray="1.5 5"></path></g></g><mask></mask><g mask="url(#mask-q2z7bLZBGbKEhMp6x3SZ5)" stroke-linecap="round"><g transform="translate(490.19536498739944 213.43038940429688) rotate(0 12.704673585437149 49.03286174237729)"><path d="M-0.19 -0.55 C3.97 15.87, 21.29 82.24, 25.59 98.62" stroke="#000000" stroke-width="1.5" fill="none" stroke-dasharray="1.5 7"></path></g><g transform="translate(490.19536498739944 213.43038940429688) rotate(0 12.704673585437149 49.03286174237729)"><path d="M7.61 73.84 C14.67 82.7, 19.23 91.33, 25.83 100.21" stroke="#000000" stroke-width="1.5" fill="none" stroke-dasharray="1.5 5"></path></g><g transform="translate(490.19536498739944 213.43038940429688) rotate(0 12.704673585437149 49.03286174237729)"><path d="M27.46 68.65 C27.5 79.32, 25.03 89.78, 25.83 100.21" stroke="#000000" stroke-width="1.5" fill="none" stroke-dasharray="1.5 5"></path></g></g><mask id="mask-q2z7bLZBGbKEhMp6x3SZ5"><rect x="0" y="0" fill="#fff" width="615.8504850624315" height="411.9999694824219"></rect><rect x="498.57370627491537" y="253.51517944335933" fill="#000" width="8.8984375" height="18.4" opacity="1"></rect></mask><g transform="translate(498.57370627491537 253.51517944335933) rotate(0 4.326332297921226 8.948071703314838)"><text x="4.44921875" y="0" font-family="Helvetica, Segoe UI Emoji" font-size="16px" fill="#000000" text-anchor="middle" style="white-space: pre;" direction="ltr" dominant-baseline="text-before-edge">2</text></g><g stroke-linecap="round"><g transform="translate(388.35595703125 20.436798095703125) rotate(0 22.941009992812724 -0.25365606717625155)"><path d="M0.95 1.08 C8.42 1.22, 38.5 0.47, 45.89 0.05 M0 0.59 C7.19 0.48, 36.83 -1.44, 44.79 -1.6" stroke="#000000" stroke-width="1" fill="none"></path></g><g transform="translate(388.35595703125 20.436798095703125) rotate(0 22.941009992812724 -0.25365606717625155)"><path d="M25.26 6.78 C33.32 2.18, 39.2 -1.6, 43.71 -2.39 M23.64 8.01 C30.03 4.72, 36.96 2.52, 44.76 -0.81" stroke="#000000" stroke-width="1" fill="none"></path></g><g transform="translate(388.35595703125 20.436798095703125) rotate(0 22.941009992812724 -0.25365606717625155)"><path d="M24.55 -9 C32.79 -7.46, 38.94 -5.08, 43.71 -2.39 M22.94 -7.77 C29.53 -6.17, 36.67 -3.48, 44.76 -0.81" stroke="#000000" stroke-width="1" fill="none"></path></g></g><mask></mask><g transform="translate(447.99365234375 10) rotate(0 65.33984375 9.199999999999989)"><text x="0" y="0" font-family="Helvetica, Segoe UI Emoji" font-size="16px" fill="#000000" text-anchor="start" style="white-space: pre;" direction="ltr" dominant-baseline="text-before-edge">Descriptor (JSON)</text></g><g stroke-linecap="round"><g transform="translate(388.69164580210554 70.89448242187501) rotate(0 23.445305648446038 -0.6330605634783808)"><path d="M1.01 -0.81 C8.84 -0.92, 38.26 -0.34, 45.88 -0.46" stroke="#000000" stroke-width="1.5" fill="none" stroke-dasharray="1.5 7"></path></g><g transform="translate(388.69164580210554 70.89448242187501) rotate(0 23.445305648446038 -0.6330605634783808)"><path d="M22.8 6.87 C29.56 6.45, 32.3 5.66, 44.26 0.59" stroke="#000000" stroke-width="1.5" fill="none" stroke-dasharray="1.5 5"></path></g><g transform="translate(388.69164580210554 70.89448242187501) rotate(0 23.445305648446038 -0.6330605634783808)"><path d="M22.86 -8.93 C29.64 -6.04, 32.37 -3.52, 44.26 0.59" stroke="#000000" stroke-width="1.5" fill="none" stroke-dasharray="1.5 5"></path></g></g><mask></mask><g transform="translate(448.32934111460554 60.692059326171886) rotate(0 45.65234375 9.199999999999989)"><text x="0" y="0" font-family="Helvetica, Segoe UI Emoji" font-size="16px" fill="#000000" text-anchor="start" style="white-space: pre;" direction="ltr" dominant-baseline="text-before-edge">DiffID digest </text></g><g transform="translate(238.181884765625 96.11505126953125) rotate(0 41.78515625 9.199999999999989)"><text x="0" y="0" font-family="Helvetica, Segoe UI Emoji" font-size="16px" fill="#000000" text-anchor="start" style="white-space: pre;" direction="ltr" dominant-baseline="text-before-edge">`.manifests`</text></g><g transform="translate(333.2315673828125 157.1910400390625) rotate(0 28.8984375 9.199999999999989)"><text x="0" y="0" font-family="Helvetica, Segoe UI Emoji" font-size="16px" fill="#000000" text-anchor="start" style="white-space: pre;" direction="ltr" dominant-baseline="text-before-edge">`.config`</text></g><g transform="translate(137.8870849609375 238.84231567382812) rotate(0 35.56640625 18.399999999999977)"><text x="0" y="0" font-family="Helvetica, Segoe UI Emoji" font-size="16px" fill="#000000" text-anchor="start" style="white-space: pre;" direction="ltr" dominant-baseline="text-before-edge">`.layers`</text><text x="0" y="18.4" font-family="Helvetica, Segoe UI Emoji" font-size="16px" fill="#000000" text-anchor="start" style="white-space: pre;" direction="ltr" dominant-baseline="text-before-edge">(no-order)</text></g><g transform="translate(400.859375 234.8046875) rotate(0 4.44921875 9.199999999999989)"><text x="0" y="0" font-family="Helvetica, Segoe UI Emoji" font-size="16px" fill="#000000" text-anchor="start" style="white-space: pre;" direction="ltr" dominant-baseline="text-before-edge">0</text></g><g transform="translate(514.5775146484375 235.8167724609375) rotate(0 54.98828125 9.199999999999989)"><text x="0" y="0" font-family="Helvetica, Segoe UI Emoji" font-size="16px" fill="#000000" text-anchor="start" style="white-space: pre;" direction="ltr" dominant-baseline="text-before-edge">`.rootfs.diff_ids`</text></g><g transform="translate(120.2060546875 443.5972595214844) rotate(0 257.8984375 36.80000000000001)"><text x="0" y="0" font-family="Helvetica, Segoe UI Emoji" font-size="16px" fill="#000000" text-anchor="start" style="white-space: pre;" direction="ltr" dominant-baseline="text-before-edge">ChainID(0)=DiffID(0)         ChainID(i)=Digest(ChainID(i-1) + " " + DiffID(i))</text><text x="0" y="18.4" font-family="Helvetica, Segoe UI Emoji" font-size="16px" fill="#000000" text-anchor="start" style="white-space: pre;" direction="ltr" dominant-baseline="text-before-edge"></text><text x="0" y="36.8" font-family="Helvetica, Segoe UI Emoji" font-size="16px" fill="#000000" text-anchor="start" style="white-space: pre;" direction="ltr" dominant-baseline="text-before-edge">Layer digest(i) = Digest(layer i blob)  // tar | gzip | zstd</text><text x="0" y="55.199999999999996" font-family="Helvetica, Segoe UI Emoji" font-size="16px" fill="#000000" text-anchor="start" style="white-space: pre;" direction="ltr" dominant-baseline="text-before-edge">Layer DiffID(i) = Digest(uncompressed tarball of layer i)  // tar</text></g><g stroke-linecap="round"><g transform="translate(197.8658447265625 374.2862243652344) rotate(0 157.16066290438175 23.59738659354184)"><path d="M0.13 -0.57 C13.2 6.05, 51.3 40.13, 78.3 40.15 C105.3 40.18, 136.37 -1.68, 162.12 -0.42 C187.87 0.85, 207.46 47.2, 232.81 47.76 C258.15 48.31, 300.87 10.13, 314.19 2.93" stroke="#000000" stroke-width="1.5" fill="none" stroke-dasharray="1.5 7"></path></g><g transform="translate(197.8658447265625 374.2862243652344) rotate(0 157.16066290438175 23.59738659354184)"><path d="M295.94 26.03 C302.75 21.11, 306.56 12.52, 312.21 4.58" stroke="#000000" stroke-width="1.5" fill="none" stroke-dasharray="1.5 5"></path></g><g transform="translate(197.8658447265625 374.2862243652344) rotate(0 157.16066290438175 23.59738659354184)"><path d="M284.24 9.18 C294.48 9.11, 301.67 5.39, 312.21 4.58" stroke="#000000" stroke-width="1.5" fill="none" stroke-dasharray="1.5 5"></path></g></g><mask></mask><g transform="translate(510.877197265625 397.5958557128906) rotate(0 20.90234375 9.199999999999989)"><text x="0" y="0" font-family="Helvetica, Segoe UI Emoji" font-size="16px" fill="#000000" text-anchor="start" style="white-space: pre;" direction="ltr" dominant-baseline="text-before-edge">Chain</text></g></svg>