<svg version="1.1" xmlns="http://www.w3.org/2000/svg" viewBox="0 0 509.86956787109375 216" width="509.86956787109375" height="216">
  <!-- svg-source:excalidraw -->
  
  <defs>
    <style class="style-fonts">
      @font-face {
        font-family: "Virgil";
        src: url("https://excalidraw.com/Virgil.woff2");
      }
      @font-face {
        font-family: "Cascadia";
        src: url("https://excalidraw.com/Cascadia.woff2");
      }
    </style>
  </defs>
  <rect x="0" y="0" width="509.86956787109375" height="216" fill="#ffffff"></rect><g stroke-linecap="round" transform="translate(158.36236572265625 10) rotate(0 170.75360107421875 98)"><path d="M0.45 -0.26 C79.75 -1.27, 159.23 -1.72, 341.93 0.63 M0.58 0.63 C135.55 1.39, 271.09 2.33, 341.69 -0.64 M343.47 0.7 C341.85 53.3, 340.23 103.28, 341.94 196.47 M341.61 -0.23 C343.06 66.07, 342.97 129.72, 342.16 196.21 M341.82 196.35 C245.95 193.44, 150.24 194.64, -0.11 195.97 M341.68 195.76 C269.02 196.38, 196.75 196.37, -0.55 196.3 M1.19 196.27 C-1.38 140.26, 0.67 85.64, -0.45 -1.42 M-0.16 195.52 C-0.68 128.63, 0.71 60.26, 0.12 0.13" stroke="#000000" stroke-width="1" fill="none"></path></g><g transform="translate(163.36236572265625 15) rotate(0 102.71875 82.79999999999995)"><text x="0" y="0" font-family="Helvetica, Segoe UI Emoji" font-size="16px" fill="#000000" text-anchor="start" style="white-space: pre;" direction="ltr" dominant-baseline="text-before-edge">blobs/sha256/</text><text x="0" y="18.4" font-family="Helvetica, Segoe UI Emoji" font-size="16px" fill="#000000" text-anchor="start" style="white-space: pre;" direction="ltr" dominant-baseline="text-before-edge">- 537da2... (image manifest)</text><text x="0" y="36.8" font-family="Helvetica, Segoe UI Emoji" font-size="16px" fill="#000000" text-anchor="start" style="white-space: pre;" direction="ltr" dominant-baseline="text-before-edge">- bab8ce... (image config)</text><text x="0" y="55.199999999999996" font-family="Helvetica, Segoe UI Emoji" font-size="16px" fill="#000000" text-anchor="start" style="white-space: pre;" direction="ltr" dominant-baseline="text-before-edge">- cd741b... (image layer)</text><text x="0" y="73.6" font-family="Helvetica, Segoe UI Emoji" font-size="16px" fill="#000000" text-anchor="start" style="white-space: pre;" direction="ltr" dominant-baseline="text-before-edge">- f2ef2e1... (image index)</text><text x="0" y="92" font-family="Helvetica, Segoe UI Emoji" font-size="16px" fill="#000000" text-anchor="start" style="white-space: pre;" direction="ltr" dominant-baseline="text-before-edge"></text><text x="0" y="110.39999999999999" font-family="Helvetica, Segoe UI Emoji" font-size="16px" fill="#000000" text-anchor="start" style="white-space: pre;" direction="ltr" dominant-baseline="text-before-edge">oci-layout (oci layout header)</text><text x="0" y="128.79999999999998" font-family="Helvetica, Segoe UI Emoji" font-size="16px" fill="#000000" text-anchor="start" style="white-space: pre;" direction="ltr" dominant-baseline="text-before-edge"></text><text x="0" y="147.2" font-family="Helvetica, Segoe UI Emoji" font-size="16px" fill="#000000" text-anchor="start" style="white-space: pre;" direction="ltr" dominant-baseline="text-before-edge">index.json (image index)</text></g><g transform="translate(10 164.05682373046875) rotate(0 33.34765625 9.200000000000045)"><text x="0" y="0" font-family="Helvetica, Segoe UI Emoji" font-size="16px" fill="#000000" text-anchor="start" style="white-space: pre;" direction="ltr" dominant-baseline="text-before-edge">image ref</text></g><g stroke-linecap="round"><g transform="translate(80.44744873046875 175.76974381397486) rotate(0 38.14124475419521 -1.1960326782561879)"><path d="M-0.27 0.71 C21.39 -1.2, 40.6 -1.61, 76.55 -3.1 M0.71 0.71 C26.52 -0.11, 52.52 -0.85, 76.17 -1.92" stroke="#000000" stroke-width="1" fill="none"></path></g><g transform="translate(80.44744873046875 175.76974381397486) rotate(0 38.14124475419521 -1.1960326782561879)"><path d="M48.15 10.18 C57.32 6.38, 64.08 3.72, 76.01 -2.48 M49.13 10.18 C58.46 6.38, 68 2.66, 75.62 -1.31" stroke="#000000" stroke-width="1" fill="none"></path></g><g transform="translate(80.44744873046875 175.76974381397486) rotate(0 38.14124475419521 -1.1960326782561879)"><path d="M47.32 -10.32 C56.78 -8.92, 63.75 -6.36, 76.01 -2.48 M48.3 -10.33 C57.93 -7.23, 67.75 -4.06, 75.62 -1.31" stroke="#000000" stroke-width="1" fill="none"></path></g></g><mask></mask><g mask="url(#mask-dK6XgPMlOzbL4vRqLF3ix)" stroke-linecap="round"><g transform="translate(343.0411752271534 174.13777832321261) rotate(0 15.761254310888717 -33.168097244310275)"><path d="M0.99 -1.74 C12.55 -0.45, 23.46 1.52, 27.92 0.36 M-0.46 0.59 C9.03 0, 17.55 -1.08, 29.68 -0.83 M28.11 1.39 C28.49 -24.09, 30.31 -45.75, 31.37 -64.33 M29.44 0.47 C31.17 -17.83, 30.66 -36.89, 29.14 -64.76 M31.99 -63.54 C21.43 -65.11, 11.29 -67.76, -0.47 -67.73 M29.85 -64.02 C21.87 -66.22, 15.81 -65.15, 1.02 -66.9" stroke="#000000" stroke-width="1" fill="none"></path></g><g transform="translate(343.0411752271534 174.13777832321261) rotate(0 15.761254310888717 -33.168097244310275)"><path d="M16.15 -72.06 C10.77 -69.79, 4.88 -66.74, -0.43 -66.34 M15.07 -70.32 C11.85 -69.65, 7.88 -69.28, 0.88 -67.22" stroke="#000000" stroke-width="1" fill="none"></path></g><g transform="translate(343.0411752271534 174.13777832321261) rotate(0 15.761254310888717 -33.168097244310275)"><path d="M15.26 -61.91 C10.19 -63.51, 4.64 -64.34, -0.43 -66.34 M14.19 -60.17 C11.15 -62.35, 7.43 -64.84, 0.88 -67.22" stroke="#000000" stroke-width="1" fill="none"></path></g></g><mask id="mask-dK6XgPMlOzbL4vRqLF3ix"><rect x="0" y="0" fill="#fff" width="473.11441352927847" height="340.9011164980641"></rect><rect x="368.5648155495744" y="132.29662862446662" fill="#000" width="8.8984375" height="18.4" opacity="1"></rect></mask><g transform="translate(368.5648155495744 132.29662862446662) rotate(0 -9.762386011532271 8.67305245443572)"><text x="4.44921875" y="0" font-family="Helvetica, Segoe UI Emoji" font-size="16px" fill="#000000" text-anchor="middle" style="white-space: pre;" direction="ltr" dominant-baseline="text-before-edge">1</text></g><g stroke-linecap="round"><g transform="translate(345.65338134765625 97.92327880859375) rotate(0 44.83343614637852 -40.295858059078455)"><path d="M1.1 -1.43 C32.32 0.37, 65.85 -1.52, 112.61 0.74 M-0.69 0.96 C34.06 0.17, 69.44 -0.27, 113.41 -0.03 M114.38 -1.05 C111.28 -21.25, 112.26 -36.37, 112.79 -79.31 M112.97 -0.34 C113.94 -22.51, 113.78 -42.52, 113.3 -79.64 M113.46 -81.56 C59.86 -80.23, 9.25 -82.79, -24.71 -79.6 M112.09 -81.16 C80.85 -79.32, 47.56 -78.63, -22.16 -79.65 M-23.44 -79.41 C-21.92 -73.04, -21.31 -68.08, -23.18 -63.16 M-23 -79.26 C-23.32 -73.56, -23.24 -68.59, -22.98 -64.46" stroke="#000000" stroke-width="1" fill="none"></path></g><g transform="translate(345.65338134765625 97.92327880859375) rotate(0 44.83343614637852 -40.295858059078455)"><path d="M-25.53 -72.16 C-25.63 -68.98, -24.89 -67.48, -23.2 -63.86 M-26.23 -71.23 C-25.36 -69.33, -24.28 -67.19, -22.89 -64.16" stroke="#000000" stroke-width="1" fill="none"></path></g><g transform="translate(345.65338134765625 97.92327880859375) rotate(0 44.83343614637852 -40.295858059078455)"><path d="M-20.24 -72.4 C-21.93 -69.12, -22.77 -67.54, -23.2 -63.86 M-20.93 -71.47 C-21.7 -69.5, -22.26 -67.3, -22.89 -64.16" stroke="#000000" stroke-width="1" fill="none"></path></g></g><mask></mask><g stroke-linecap="round"><g transform="translate(361.31036376953125 44.83026123046875) rotate(0 -7.875520946371239 10.774852838367224)"><path d="M-0.25 1.24 C-0.28 8.75, -1.58 15.24, -0.58 22.5 M0.73 -0.95 C-0.14 3.96, -0.38 8.85, -0.86 21.26 M0.86 21.67 C-4.78 22.64, -8.2 20.99, -16.61 21 M-0.44 21.34 C-6.67 20.64, -12.26 20.56, -16.48 20.32" stroke="#000000" stroke-width="1" fill="none"></path></g><g transform="translate(361.31036376953125 44.83026123046875) rotate(0 -7.875520946371239 10.774852838367224)"><path d="M-8.72 18.38 C-11.68 19.04, -15.19 19.31, -16.65 20.81 M-8.31 17.48 C-10.4 18.03, -12.24 18.64, -16.76 20.3" stroke="#000000" stroke-width="1" fill="none"></path></g><g transform="translate(361.31036376953125 44.83026123046875) rotate(0 -7.875520946371239 10.774852838367224)"><path d="M-8.98 24.01 C-11.83 22.53, -15.23 20.64, -16.65 20.81 M-8.57 23.11 C-10.61 22.42, -12.39 21.77, -16.76 20.3" stroke="#000000" stroke-width="1" fill="none"></path></g></g><mask></mask><g stroke-linecap="round"><g transform="translate(362.53912353515625 48.88568115234375) rotate(0 -10.855284230239022 17.309453818947077)"><path d="M0.03 0.22 C0.07 8.71, -1.34 19.29, -4.12 35.19 M-0.95 -0.57 C-1.52 12.14, -3.3 24.82, -4.41 34.67 M-4.91 34.32 C-7.3 33.51, -11.48 33.42, -21.74 32.44 M-5.36 33.7 C-9.32 33.33, -13.38 33.69, -20.27 32.68" stroke="#000000" stroke-width="1" fill="none"></path></g><g transform="translate(362.53912353515625 48.88568115234375) rotate(0 -10.855284230239022 17.309453818947077)"><path d="M-12.94 30.96 C-14.37 31.17, -16.36 32.13, -19.8 33.2 M-13.31 30.66 C-15.41 31.43, -18.03 32.2, -19.91 33.01" stroke="#000000" stroke-width="1" fill="none"></path></g><g transform="translate(362.53912353515625 48.88568115234375) rotate(0 -10.855284230239022 17.309453818947077)"><path d="M-13.49 36.09 C-14.76 34.88, -16.6 34.41, -19.8 33.2 M-13.86 35.79 C-15.74 34.69, -18.15 33.58, -19.91 33.01" stroke="#000000" stroke-width="1" fill="none"></path></g></g><mask></mask><g transform="translate(450.67828369140625 62.00714111328125) rotate(0 4.44921875 9.200000000000045)"><text x="0" y="0" font-family="Helvetica, Segoe UI Emoji" font-size="16px" fill="#000000" text-anchor="start" style="white-space: pre;" direction="ltr" dominant-baseline="text-before-edge">2</text></g><g transform="translate(364.72662353515625 57.31256103515625) rotate(0 4.44921875 9.200000000000045)"><text x="0" y="0" font-family="Helvetica, Segoe UI Emoji" font-size="16px" fill="#000000" text-anchor="start" style="white-space: pre;" direction="ltr" dominant-baseline="text-before-edge">3</text></g><g transform="translate(105.59661865234375 162.69964599609375) rotate(0 4.44921875 9.200000000000045)"><text x="0" y="0" font-family="Helvetica, Segoe UI Emoji" font-size="16px" fill="#000000" text-anchor="start" style="white-space: pre;" direction="ltr" dominant-baseline="text-before-edge">0</text></g></svg>